<?xml version="1.0" encoding="UTF-8" standalone="no"?>
<svg
   width="1129"
   height="663"
   viewBox="0 0 1129 663"
   version="1.1"
   id="svg29"
   sodipodi:docname="focus.svg"
   inkscape:version="1.4.2 (ebf0e940d0, 2025-05-08)"
   xml:space="preserve"
   xmlns:inkscape="http://www.inkscape.org/namespaces/inkscape"
   xmlns:sodipodi="http://sodipodi.sourceforge.net/DTD/sodipodi-0.dtd"
   xmlns="http://www.w3.org/2000/svg"
   xmlns:svg="http://www.w3.org/2000/svg"><defs
     id="defs29" /><sodipodi:namedview
     id="namedview29"
     pagecolor="#ffffff"
     bordercolor="#000000"
     borderopacity="0.25"
     inkscape:showpageshadow="2"
     inkscape:pageopacity="0.0"
     inkscape:pagecheckerboard="0"
     inkscape:deskcolor="#d1d1d1"
     inkscape:zoom="13.809301"
     inkscape:cx="296.86514"
     inkscape:cy="311.92745"
     inkscape:window-width="1914"
     inkscape:window-height="1035"
     inkscape:window-x="0"
     inkscape:window-y="0"
     inkscape:window-maximized="1"
     inkscape:current-layer="g1" /><title
     id="title1">Focus on What Matters</title><circle
     cx="321"
     cy="321"
     r="321"
     fill="#f2f2f2"
     id="circle1" /><ellipse
     cx="559"
     cy="635.49998"
     rx="514"
     ry="27.50002"
     fill="#3f3d56"
     id="ellipse1" /><ellipse
     cx="558"
     cy="627"
     rx="460"
     ry="22"
     opacity="0.2"
     id="ellipse2" /><rect
     x="131"
     y="152.5"
     width="840"
     height="50"
     fill="#3f3d56"
     id="rect2" /><path
     d="m 166.5,727.3299 c -1e-5,11.96807 9.70203,21.67011 21.6701,21.6701 h 796.6598 c 11.96807,10e-6 21.6701,-9.70203 21.6701,-21.6701 V 296 h -840 z"
     transform="translate(-35.5,-118.5)"
     fill="#3f3d56"
     id="path2"
     sodipodi:nodetypes="cccsccc" /><path
     d="M984.8299,236H188.1701A21.67009,21.67009,0,0,0,166.5,257.6701V296h840V257.6701A21.67009,21.67009,0,0,0,984.8299,236Z"
     transform="translate(-35.5 -118.5)"
     fill="#3f3d56"
     id="path3" /><path
     d="M984.8299,236H188.1701A21.67009,21.67009,0,0,0,166.5,257.6701V296h840V257.6701A21.67009,21.67009,0,0,0,984.8299,236Z"
     transform="translate(-35.5 -118.5)"
     opacity="0.2"
     id="path4" /><circle
     cx="181"
     cy="147.5"
     r="13"
     fill="#3f3d56"
     id="circle4" /><circle
     cx="217"
     cy="147.5"
     r="13"
     fill="#3f3d56"
     id="circle5" /><circle
     cx="253"
     cy="147.5"
     r="13"
     fill="#3f3d56"
     id="circle6" /><rect
     x="603"
     y="272.5"
     width="284"
     height="22"
     rx="5.47638"
     fill="#2e8555"
     id="rect7" /><rect
     x="537"
     y="352.5"
     width="416"
     height="15"
     rx="5.47638"
     fill="#2e8555"
     id="rect8"
     style="fill:#2e8555;fill-opacity:1" /><rect
     x="537"
     y="396.5"
     width="416"
     height="15"
     rx="5.47638"
     fill="#2e8555"
     id="rect9" /><rect
     x="537"
     y="440.5"
     width="416"
     height="15"
     rx="5.47638"
     fill="#2e8555"
     id="rect10" /><rect
     x="537"
     y="484.5"
     width="416"
     height="15"
     rx="5.47638"
     fill="#2e8555"
     id="rect11" /><rect
     x="865"
     y="552.5"
     width="88"
     height="26"
     rx="7.02756"
     fill="#3ecc5f"
     id="rect12" /><g
     id="g1"
     transform="matrix(0.74616708,0,0,0.79934508,245.98953,297.29329)"
     inkscape:label="vim"><path
       id="path1"
       style="display:inline;fill:#1e9352;fill-opacity:1"
       transform="translate(125,3)"
       d="M 1.1645911,7.0662436 C 3.1672904,9.0220962 1.8048513,7.2290469 5.236803,8.0274502 8.7808025,10.494896 10.869727,12.029093 13.625,14.875 l 2.226563,2.304687 c 2.145705,1.817999 5.524994,2.81967 5.524994,2.81967 C 22.340426,17.188073 24.599551,14.67304 27,13 l 2,-3 c 2.692041,-0.2863593 5.153196,-0.3783514 7.846191,-0.3405762 0.809839,-4.381e-4 1.619677,-8.761e-4 2.454056,-0.00133 2.684015,0.00209 5.36741,0.025456 8.051315,0.048935 1.858019,0.00559 3.716042,0.00986 5.574067,0.012863 4.895906,0.011467 9.791546,0.040951 14.687347,0.074112 4.993555,0.03066 9.987152,0.044385 14.980774,0.059509 9.8022,0.0322 19.6042,0.083419 29.40625,0.1464872 2.75183,4.513689 3.12925,5.273058 4.64844,7.828125 2.15449,3.462126 1.94389,6.922694 1.97656,10.921875 0.0451,0.773437 0.0902,1.546875 0.13672,2.34375 0.0548,4.665563 -0.68574,7.364587 -3.74609,10.9375 -20.939624,21.79401 -21.782523,22.340964 -32.152349,33.960937 -4.388906,4.71407 -4.008808,2.835196 -4.983396,5.271665 2.315971,3.165742 5.483384,5.878027 8.495486,8.627457 1.804217,1.949362 2.58916,2.394041 4.377747,4.148621 5.936255,5.441578 11.684642,10.88918 17.543752,16.2841 10.75843,10.16508 8.139,7.65371 10.92678,10.27996 1.97789,2.30961 0.25261,0.23903 2.08907,2.53568 -12.88066,12.09289 -29.294923,27.61836 -41.180663,39.05951 1.206563,1.14469 9.074506,-1.05449 10.305443,0.11332 C 93,165 93,165 94,168 c 1.414936,0.10884 2.832329,0.18598 4.25,0.25 0.788906,0.0464 1.577812,0.0928 2.39063,0.14062 2.52995,-0.16932 2.52995,-0.16932 4.16406,-2.36328 3.09159,-2.85504 6.05695,-2.7552 10.07031,-2.71484 0.71728,0.006 1.43457,0.0116 2.17358,0.0176 4.20099,0.189 7.05117,0.59457 10.01392,3.66992 2.03674,2.67438 1.93204,4.12359 1.78125,7.53516 -1.01392,6.48575 -3.33001,12.68204 -5.4043,18.88867 C 121.20003,200.42028 119.59754,206.79262 122,214 l -3,8 H 94 c 0,-7.86538 0,-7.86538 1.53125,-12.32031 0.31582,-0.94746 0.631641,-1.89492 0.957031,-2.8711 L 97.5,203.875 c 0.663001,-1.93781 1.319498,-3.87786 1.96875,-5.82031 0.293262,-0.85094 0.58652,-1.70189 0.88867,-2.57862 0.67273,-2.59225 0.75941,-4.8099 0.64258,-7.47607 h -7 l -1,2 -2,3 c -2.63799,6.73014 -4.846911,12.8219 -3.066406,20 0.06641,2 0.06641,2 -0.703125,4.72656 -2.700723,2.75275 -3.549938,2.64768 -7.300782,2.79688 -2.018693,-0.0239 -4.037207,-0.0745 -6.054687,-0.14844 -1.027383,-0.0142 -2.054766,-0.0284 -3.113281,-0.043 C 63.181835,220.18184 63.181835,220.18184 62,219 c 0.44881,-6.29046 2.058912,-11.85752 4.0625,-17.8125 0.557293,-1.67188 1.11085,-3.34501 1.660156,-5.01953 0.367504,-1.09405 0.367504,-1.09405 0.742432,-2.21021 C 69.131783,191.85593 69.131783,191.85593 69,189 l -8,-1 c -4.267804,6.62245 -7.805994,14.88269 -6.625,22.875 0.152109,0.6368 0.304219,1.27359 0.460937,1.92969 C 55.082446,216.10321 53.998994,218.88284 53,222 c -0.61593,-0.1111 -1.23186,-0.2222 -1.866455,-0.33667 -8.576249,0.57143 -24.179536,-3.85574 -31.536475,0.85552 -9.487987,7.26983 -11.6207972,9.48703 -20.32164833,18.48494 -3.40353017,-1.47123 0.67708111,2.21769 -1.92813477,-0.4036 C -14.528218,231.61649 -36.825382,194.84811 -44,207 l -0.832031,1.85156 C -46.537971,211.98958 -49.240363,213.82859 -52,216 c -1.257416,1.01168 -2.507425,2.03264 -3.75,3.0625 -0.572344,0.46535 -1.144688,0.9307 -1.734375,1.41016 -1.69172,1.7048 -2.490929,3.37155 -3.515625,5.52734 -3.895691,0.0873 -7.79113,0.1405 -11.6875,0.1875 -1.102793,0.0251 -2.205586,0.0503 -3.341797,0.0762 -1.066699,0.01 -2.133398,0.0193 -3.232422,0.0293 -1.468927,0.0236 -1.468927,0.0236 -2.967529,0.0476 C -85.493644,225.93932 -87.382095,224.96425 -90,223 v -2 l -5,-1 -1,-3 h -2 c 0.04299,-0.74628 0.08597,-1.49256 0.130264,-2.26146 0.509845,-9.38971 0.812885,-18.77347 0.932236,-28.17604 0.01429,-1.10812 0.01429,-1.10812 0.02886,-2.23862 C -97.80325,173.24231 -95.455584,76.272786 -98,48 l -2.32593,-0.349854 c -3.17162,-0.771116 -4.73475,-2.10156 -6.70581,-4.68872 -1.9582,-3.966769 -1.55888,-8.197502 -1.40576,-12.523926 0.009,-1.398955 0.009,-1.398955 0.0176,-2.826172 C -108.26379,18.849205 -108.26379,18.849205 -106,15 l 3,-2 2,-3 c 2.645544,-0.3023444 5.058336,-0.4094899 7.706787,-0.3881836 1.192899,-0.00789 1.192899,-0.00789 2.409897,-0.01593 2.637085,-0.013237 5.273569,-0.00445 7.91066,0.00568 1.828416,-0.00202 3.656831,-0.00493 5.485245,-0.0087 3.835969,-0.00443 7.671729,0.00202 11.507675,0.016022 4.921019,0.01708 9.841548,0.00726 14.762549,-0.010717 3.777207,-0.010834 7.554297,-0.00739 11.331508,3.834e-4 1.814518,0.002 3.629047,-4.635e-4 5.443554,-0.00744 2.5356,-0.00761 5.070402,0.00398 7.605943,0.020702 0.752833,-0.00607 1.505666,-0.012145 2.281311,-0.018402 5.105688,0.062488 5.105688,0.062488 7.544632,1.9308472 l 3.43647,6.186567 c 6.3463448,-2.253051 7.2825735,-4.551676 12.2201212,-9.8784784 z m -3.7255344,1.3880061 c -1.1065844,1.122622 -1.0460435,2.1571533 -2.1479089,3.2844073 -1.979264,2.024869 -3.0034317,2.662149 -5.0295074,4.641107 l -3.8144284,1.358893 c -0.02578,1.229766 1.501228,5.720874 1.474658,6.987905 -0.05631,1.632847 -0.113652,3.265658 -0.171875,4.898438 l -0.04297,2.449219 C -12.51503,37.536936 -13.544289,40.57237 -17,45 c -0.769397,2.226026 -0.769397,2.226026 -1,4 l -4,1 v 47 c 2.961766,0.307306 2.961766,0.307306 4.685791,-1.313477 l 1.818115,-1.827148 1.994141,-1.996094 L -11.4375,89.75 -9.3613281,87.683594 C -6.2808845,84.569897 -3.8850351,81.974644 -2,78 -0.1953125,75.894531 -0.1953125,75.894531 1.875,73.8125 L 3.9296875,71.707031 C 6,70 6,70 7.9042969,69.595703 10.535067,68.847907 11.680012,67.6929 13.601563,65.761719 14.256406,65.10623 14.91125,64.450742 15.585938,63.775391 L 17.625,61.6875 19.6875,59.634766 C 22.733715,56.55544 25.206949,53.980777 27,50 l 2,-4 -2.4375,-1.8125 C 24,42 24,42 23,39 23.0116,38.304712 23.0232,37.609424 23.03516,36.893066 23.102242,30.964341 25.1144,24.438172 21.056273,20.115315 19.224744,18.333929 18.82543,19.384838 16.949512,17.650257 L 12.73926,14.715165 C 7.6302492,8.3157668 3.1659833,6.0509452 -2.5609433,8.4542497 Z M -100,11 v 1 h 80 v -1 z m 76,37 v 53 c 2.213954,-1.788254 2.213954,-1.788254 2.202545,-4.176666 -0.03331,-1.352353 -0.03331,-1.352353 -0.06729,-2.732025 -0.02017,-1.020908 -0.04034,-2.041815 -0.06113,-3.093659 -0.0322,-1.10524 -0.06439,-2.21048 -0.09756,-3.349213 -0.02503,-1.129168 -0.05005,-2.258336 -0.07584,-3.421722 -0.08237,-3.617536 -0.178897,-7.23454 -0.275726,-10.851715 -0.05822,-2.447895 -0.115525,-4.895811 -0.171875,-7.34375 C -22.687254,60.020537 -22.839259,54.010201 -23,48 Z M 64.29834,93.461426 C 31.366862,127.07593 45.052636,113.61794 27.136719,131.76562 25.419875,133.50599 23.707882,135.25085 22,137 l 2,2 c 2.755898,-0.0175 5.387867,-0.13863 8.125,-0.375 1.131152,-0.0851 1.131152,-0.0851 2.285156,-0.17188 C 36.274181,138.31155 38.137211,138.157 40,138 c 1.274558,4.37925 0.636352,7.2003 -0.75,11.5 -0.345469,1.10344 -0.690937,2.20687 -1.046875,3.34375 C 36.468687,157.39383 35.091721,160.27219 31,163 h 2 c -0.446348,9.09558 -3.687657,17.20755 -6.93335,25.62085 C 22.285028,198.49919 21.511714,205.64733 24,216 c 0.433125,-0.47438 0.86625,-0.94875 1.3125,-1.4375 C 27,213 27,213 30,212 c 1.381944,-2.8614 1.381944,-2.8614 2.515625,-6.41406 l 0.666931,-1.96323 c 0.463071,-1.37499 0.919961,-2.75208 1.371155,-4.13101 0.688925,-2.09431 1.40587,-4.17747 2.125976,-6.26123 0.447056,-1.33926 0.892422,-2.67909 1.335938,-4.01953 0.405088,-1.21382 0.810176,-2.42763 1.227539,-3.67823 0.967098,-4.51416 0.582424,-8.26234 -0.993164,-12.59521 -0.399701,-3.09768 1.333026,-5.24598 2.75,-7.9375 3.145368,-0.19595 6.291306,-0.38034 9.4375,-0.5625 1.346748,-0.0841 1.346748,-0.0841 2.720703,-0.16992 0.854004,-0.0483 1.708008,-0.0967 2.587891,-0.14649 1.186139,-0.0707 1.186139,-0.0707 2.39624,-0.14282 C 60,164 60,164 61,165 c 3.348441,3.16579 3.348441,3.16579 7.6875,4.1875 C 69.450625,169.1256 70.21375,169.06375 71,169 l 2,1 c 0.37125,-0.68063 0.7425,-1.36125 1.125,-2.0625 17.043723,-16.46796 19.101847,-18.13379 47.29957,-44.90662 C 108.81337,109.69201 88.415952,92.805215 79.772409,83.635813 79.050725,82.98099 78.406853,81.29942 77.611068,81.324359 72.286528,83.946198 68.477199,89.297665 64.29834,93.461426 Z m 64.36839,80.354114 0.1446,0.1671 z M 21,138 l -1,2 h 2 z m -2,2 -1,2 h 2 z m -2,2 c -2.767325,3.26988 -2.767325,3.26988 -4.921875,6.94531 -1.21305,2.31183 -2.6021015,3.84483 -4.453125,5.67969 -0.8778516,0.88559 -0.8778516,0.88559 -1.7734375,1.78906 C 4,158 4,158 2.2209473,158.78125 c -4.7943128,2.63089 -8.4532288,7.11948 -12.2944333,10.97656 -1.610364,1.61353 -3.233609,3.21327 -4.858155,4.8125 -1.027502,1.02523 -2.054222,2.05125 -3.080078,3.07813 -0.932878,0.92989 -1.865757,1.85979 -2.826904,2.81787 -2.071048,2.4278 -2.644339,3.50346 -3.161377,6.53369 -1.925781,2.28906 -1.925781,2.28906 -4.3125,4.625 -1.169824,1.16402 -1.169824,1.16402 -2.363281,2.35156 -2.086198,1.81622 -3.835116,2.88862 -6.324219,4.02344 -1.709216,1.54123 -3.129457,3.62456 -4.420241,5.08333 0,0 5.572808,3.12174 9.042304,5.93845 4.791625,3.89008 4.50138,4.34221 6.07841,5.79581 2.542635,2.53145 4.58491,5.81342 7.134647,8.33771 1.725718,1.71569 2.740864,3.52653 4.465661,5.24314 C -10.065587,232.79363 -6.2378613,236.80429 -2,241 c 1.10772488,-0.94193 2.31581025,-1.50634 3.4220024,-2.45007 0.6163784,-0.5251 1.1313109,-1.429 1.7663674,-1.97002 2.5198494,-2.19754 4.889027,-4.52512 7.2491302,-6.89241 0.864961,-0.86238 1.729922,-1.72477 2.621094,-2.61328 2.055297,-1.7224 4.185658,-2.57467 5.492008,-3.45301 L -4,223 c -0.9125074,-7.30006 -1.0950322,-9.0608 1.34375,-15.35156 0.2479431,-0.66253 0.4958862,-1.32506 0.7513428,-2.00766 0.7852893,-2.09525 1.59251227,-4.18091 2.4049072,-6.26578 0.8111778,-2.09237 1.6166515,-4.18608 2.4049072,-6.2872 0.7136007,-1.9013 1.447736,-3.79486 2.1829834,-5.6879 C 6.0636823,183.76262 5.7900045,181.62834 5,178 l 1,-2 -3,-2 0.4726563,-1.89844 C 3.6673047,171.2843 3.8619531,170.46703 4.0625,169.625 4.3583398,168.40684 4.3583398,168.40684 4.6601562,167.16406 5.2210932,164.95839 5.2210932,164.95839 4,163 l 17,-1 c -0.560503,-3.89798 -0.560503,-3.89798 -2.613281,-5.36328 C 17,155 17,155 17.144531,152.08203 l 0.667969,-3.26953 0.644531,-3.29297 C 18.636211,144.68809 18.815391,143.85664 19,143 Z m 5,18 v 1 h 11 v -1 z m -17,5 h 27 c -2.569887,-2.56989 -3.589101,-2.25707 -7.15625,-2.26563 -1.022227,-0.003 -2.044453,-0.005 -3.097656,-0.008 -1.606817,0.0116 -1.606817,0.0116 -3.246094,0.0234 -1.071211,-0.008 -2.142422,-0.0155 -3.246094,-0.0234 -1.53334,0.004 -1.53334,0.004 -3.097656,0.008 -1.410557,0.003 -1.410557,0.003 -2.8496094,0.007 C 6.8050803,162.77901 6.8050803,162.77901 5,165 Z m 81,-2 4,1 z m -79,13 1,2 z m 33,0 1,3 z m -34,2 1,3 z m 58,8 v 1 h 5 v -1 z m 6,0 1,3 z m 25,0 v 1 h 7 v -1 z m 7,1 1,3 z m -81,18 -1,5 2,-2 z m 98,0 1,4 z m -67,4 1,2 z m 33,0 1,2 z m 33,0 1,2 z m -95,7 1,3 z m 6.898554,4.66288 L 30,221 h 22 l 0.202892,1.74621 z M -3,222 -2.8985542,222.9053 18.28988,223.71591 20,222 Z m 2,19 -0.014458,-0.0833 L 1,241 Z"
       sodipodi:nodetypes="cccccccccccccccccccccccccccccccccccccccccccccccccccccccccccccccccccccccccccccccccccccccccccccccccccccccccccscccccccccccccccccccccccccccccccccccccccccccccccccccccccccccccccccccccccccccccccccsccccccccccccccccccccccccccscccccccccccccccccccccccccccccccccccccccccccccccccccccccccccccccccccccccccccccccccccccccccccccccccccccccc" /><path
       d=""
       fill="#239339"
       id="path35" /><path
       d=""
       fill="#0d6e38"
       id="path36" /><path
       d=""
       fill="#164f20"
       id="path37" /><path
       d=""
       fill="#21bf2f"
       id="path38" /><path
       d=""
       fill="#115729"
       id="path39" /><path
       d=""
       fill="#015e12"
       id="path40" /><path
       d=""
       fill="#08bb36"
       id="path41" /><path
       d=""
       fill="#1aad4f"
       id="path42" /><path
       d=""
       fill="#136226"
       id="path43" /><path
       d=""
       fill="#28a240"
       id="path44" /><path
       d=""
       fill="#136321"
       id="path45" /><path
       d=""
       fill="#186227"
       id="path46" /><path
       d=""
       fill="#25b150"
       id="path47" /><path
       d=""
       fill="#1a6f3d"
       id="path48" /><path
       d=""
       fill="#045f18"
       id="path49" /><path
       d=""
       fill="#18aa32"
       id="path50" /><path
       d=""
       fill="#1ead45"
       id="path51" /><path
       d=""
       fill="#096823"
       id="path52" /><path
       d=""
       fill="#0d9d20"
       id="path53" /><path
       d=""
       fill="#0f6122"
       id="path54" /><path
       d=""
       fill="#13602a"
       id="path55" /><path
       d=""
       fill="#26a63d"
       id="path56" /><path
       d=""
       fill="#29a651"
       id="path57" /><path
       d=""
       fill="#1d722f"
       id="path58" /><path
       d=""
       fill="#249839"
       id="path59" /><path
       d=""
       fill="#0f682d"
       id="path60" /><path
       d=""
       fill="#1cbe31"
       id="path61" /><path
       d=""
       fill="#116d28"
       id="path62" /><path
       d=""
       fill="#14ad2d"
       id="path63" /><path
       d=""
       fill="#074d23"
       id="path64" /><path
       d=""
       fill="#0cbe3b"
       id="path65" /><path
       d=""
       fill="#199f3b"
       id="path66" /><path
       d=""
       fill="#166539"
       id="path67" /><path
       d=""
       fill="#0d5c21"
       id="path68" /><path
       d=""
       fill="#16ab3c"
       id="path69" /><path
       d=""
       fill="#075a15"
       id="path70" /><path
       d=""
       fill="#24ab3e"
       id="path71" /><path
       d=""
       fill="#1ba535"
       id="path72" /><path
       d=""
       fill="#32bd5d"
       id="path73" /><path
       d=""
       fill="#196f35"
       id="path74" /><path
       d=""
       fill="#1a9335"
       id="path75" /><path
       d=""
       fill="#0e6b25"
       id="path76" /><path
       d=""
       fill="#0b7a1b"
       id="path77" /><path
       d=""
       fill="#095826"
       id="path78" /><path
       d=""
       fill="#087725"
       id="path79" /><path
       d=""
       fill="#09ac26"
       id="path80" /><path
       d=""
       fill="#15ad47"
       id="path81" /><path
       d=""
       fill="#0d792a"
       id="path82" /><path
       d=""
       fill="#0dbb3a"
       id="path83" /><path
       d=""
       fill="#26b34a"
       id="path84" /><path
       d=""
       fill="#1d593f"
       id="path85" /><path
       d=""
       fill="#1a6c2a"
       id="path86" /><path
       d=""
       fill="#2ac255"
       id="path87" /><path
       d=""
       fill="#11551c"
       id="path88" /><path
       d=""
       fill="#0b602c"
       id="path89" /><path
       d=""
       fill="#127131"
       id="path90" /><path
       d=""
       fill="#1bab30"
       id="path91" /><path
       d=""
       fill="#1f8c4a"
       id="path92" /><path
       d=""
       fill="#27a243"
       id="path93" /><path
       d=""
       fill="#28a951"
       id="path94" /><path
       d=""
       fill="#136220"
       id="path95" /><path
       d=""
       fill="#19ae32"
       id="path96" /><path
       d=""
       fill="#0b551c"
       id="path97" /><path
       d=""
       fill="#3eb24f"
       id="path98" /><path
       d=""
       fill="#2eb64b"
       id="path99" /><path
       d=""
       fill="#229c28"
       id="path100" /><path
       d=""
       fill="#29994d"
       id="path101" /><path
       d=""
       fill="#105617"
       id="path104" /><path
       d=""
       fill="#125827"
       id="path105" /><path
       d=""
       fill="#25a55a"
       id="path106" /><path
       d=""
       fill="#1a7d20"
       id="path107" /><path
       d=""
       fill="#128b28"
       id="path108" /><path
       d=""
       fill="#0a8831"
       id="path110" /><path
       d=""
       fill="#2dba4b"
       id="path111" /><path
       d=""
       fill="#2f9e4c"
       id="path112" /><path
       d=""
       fill="#047e16"
       id="path113" /><path
       d=""
       fill="#2fa350"
       id="path114" /><path
       d=""
       fill="#0c962c"
       id="path115" /><path
       d=""
       fill="#208233"
       id="path116" /><path
       d=""
       fill="#098021"
       id="path117" /><path
       d=""
       fill="#2db447"
       id="path118" /><path
       d=""
       fill="#0f8622"
       id="path119" /><path
       d=""
       fill="#029826"
       id="path120" /><path
       d=""
       fill="#123e12"
       id="path121" /><path
       d=""
       fill="#001100"
       id="path122" /><path
       d=""
       fill="#154a29"
       id="path123" /><path
       d=""
       fill="#088f35"
       id="path124" /><path
       d=""
       fill="#31ae59"
       id="path125" /><path
       d=""
       fill="#116320"
       id="path126" /><path
       d=""
       fill="#1a602c"
       id="path127" /><path
       d=""
       fill="#31aa5c"
       id="path128" /><path
       d=""
       fill="#097019"
       id="path129" /><path
       d=""
       fill="#007b03"
       id="path130" /><path
       d=""
       fill="#088512"
       id="path131" /><path
       d=""
       fill="#007c0e"
       id="path132" /><path
       d=""
       fill="#0c741a"
       id="path133" /><path
       d=""
       fill="#117919"
       id="path134" /><path
       d=""
       fill="#177b2b"
       id="path135" /><path
       d=""
       fill="#118b22"
       id="path136" /><path
       d=""
       fill="#259d40"
       id="path137" /><path
       d=""
       fill="#17a948"
       id="path138" /><path
       d=""
       fill="#49d672"
       id="path139" /><path
       d=""
       fill="#08a132"
       id="path140" /><path
       d=""
       fill="#139b32"
       id="path141" /><path
       d=""
       fill="#089f3a"
       id="path142" /><path
       d=""
       fill="#119a45"
       id="path143" /><path
       d=""
       fill="#009f49"
       id="path144" /><path
       d=""
       fill="#008d3c"
       id="path145" /><path
       d=""
       fill="#077115"
       id="path146" /><path
       d=""
       fill="#078a3b"
       id="path147" /><path
       d=""
       fill="#037936"
       id="path148" /><path
       d=""
       fill="#058c68"
       id="path149" /><path
       d=""
       fill="#0c853e"
       id="path150" /><path
       d=""
       fill="#1e985a"
       id="path151" /><path
       d=""
       fill="#24da34"
       id="path152" /><path
       d=""
       fill="#007c10"
       id="path153" /><path
       d=""
       fill="#047e41"
       id="path154" /><path
       d=""
       fill="#19a865"
       id="path155" /><path
       d=""
       fill="#002b00"
       id="path156" /><path
       d=""
       fill="#27e634"
       id="path157" /><path
       d=""
       fill="#0b813c"
       id="path158" /><path
       d=""
       fill="#0c9a4c"
       id="path159" /><path
       d=""
       fill="#03a903"
       id="path160" /><path
       d=""
       fill="#008121"
       id="path161" /><path
       d=""
       fill="#007b2d"
       id="path162" /><path
       d=""
       fill="#179423"
       id="path163" /><path
       d=""
       fill="#1ed531"
       id="path164" /><path
       d=""
       fill="#008b2a"
       id="path165" /><path
       d=""
       fill="#098512"
       id="path166" /><path
       d=""
       fill="#01a539"
       id="path167" /><path
       d=""
       fill="#117919"
       id="path168" /><path
       d=""
       fill="#26a747"
       id="path169" /><path
       d=""
       fill="#1baf3b"
       id="path170" /><path
       d=""
       fill="#1ca13b"
       id="path171" /><path
       d=""
       fill="#16af47"
       id="path172" /><path
       d=""
       fill="#3fce47"
       id="path173" /><path
       d=""
       fill="#54bc62"
       id="path174" /><path
       d=""
       fill="#001b00"
       id="path175" /><path
       d=""
       fill="#18a43e"
       id="path176" /><path
       d=""
       fill="#1fe731"
       id="path177" /><path
       d=""
       fill="#001c00"
       id="path178" /><path
       d=""
       fill="#0aab3e"
       id="path179" /><path
       d=""
       fill="#18a248"
       id="path180" /><path
       d=""
       fill="#05a738"
       id="path181" /><path
       d=""
       fill="#22ab52"
       id="path182" /><path
       d=""
       fill="#06a247"
       id="path183" /><path
       d=""
       fill="#10b144"
       id="path184" /><path
       d=""
       fill="#129b34"
       id="path185" /><path
       d=""
       fill="#008e21"
       id="path186" /><path
       d=""
       fill="#007b18"
       id="path187" /><path
       d=""
       fill="#068521"
       id="path188" /><path
       d=""
       fill="#00800f"
       id="path189" /><path
       d=""
       fill="#098617"
       id="path190" /><path
       d=""
       fill="#057c09"
       id="path191" /><path
       d=""
       fill="#299e45"
       id="path192" /><path
       d=""
       fill="#2ea242"
       id="path193" /><path
       d=""
       fill="#1c9e56"
       id="path194" /><path
       d=""
       fill="#107643"
       id="path195" /><path
       d=""
       fill="#137445"
       id="path196" /><path
       d=""
       fill="#127844"
       id="path197" /><path
       d=""
       fill="#0f7b40"
       id="path198" /><path
       d=""
       fill="#109a3e"
       id="path199" /><path
       d=""
       fill="#139b3b"
       id="path200" /><path
       d=""
       fill="#086b11"
       id="path201" /><path
       d=""
       fill="#1ca545"
       id="path202" /><path
       d=""
       fill="#47c569"
       id="path203" /><path
       d=""
       fill="#001500"
       id="path204" /><path
       d=""
       fill="#1ca746"
       id="path205" /><path
       d=""
       fill="#09780a"
       id="path206" /><path
       d=""
       fill="#037d20"
       id="path207" /><path
       d=""
       fill="#23a85c"
       id="path208" /><path
       d=""
       fill="#28a65c"
       id="path209" /><path
       d=""
       fill="#269f4b"
       id="path210" /><path
       d=""
       fill="#0b8935"
       id="path211" /><path
       d=""
       fill="#13af4f"
       id="path212" /><path
       d=""
       fill="#14873a"
       id="path213" /><path
       d=""
       fill="#14863e"
       id="path214" /><path
       d=""
       fill="#048038"
       id="path215" /><path
       d=""
       fill="#008508"
       id="path216" /><path
       d=""
       fill="#22915e"
       id="path217" /><path
       d=""
       fill="#2edb31"
       id="path218" /><path
       d=""
       fill="#1ca12e"
       id="path219" /><path
       d=""
       fill="#26a258"
       id="path220" /><path
       d=""
       fill="#0d7832"
       id="path221" /><path
       d=""
       fill="#0b8545"
       id="path222" /><path
       d=""
       fill="#23962f"
       id="path223" /><path
       d=""
       fill="#229951"
       id="path224" /><path
       d=""
       fill="#10944c"
       id="path225" /><path
       d=""
       fill="#167e3d"
       id="path226" /><path
       d=""
       fill="#219358"
       id="path227" /><path
       d=""
       fill="#309c3f"
       id="path228" /><path
       d=""
       fill="#06803c"
       id="path229" /><path
       d=""
       fill="#05780d"
       id="path230" /><path
       d=""
       fill="#36c82a"
       id="path231" /><path
       d=""
       fill="#002400"
       id="path232" /><path
       d=""
       fill="#11934e"
       id="path233" /><path
       d=""
       fill="#008200"
       id="path234" /><path
       d=""
       fill="#37da64"
       id="path235" /><path
       d=""
       fill="#339e4c"
       id="path236" /><path
       d=""
       fill="#48f077"
       id="path237" /><path
       d=""
       fill="#006514"
       id="path238" /><path
       d=""
       fill="#046f0d"
       id="path239" /><path
       d=""
       fill="#05710a"
       id="path240" /><path
       d=""
       fill="#1b9e40"
       id="path241" /><path
       d=""
       fill="#0f7a1b"
       id="path242" /><path
       d=""
       fill="#189f46"
       id="path243" /><path
       d=""
       fill="#237a43"
       id="path244" /><path
       d=""
       fill="#13761c"
       id="path245" /><path
       d=""
       fill="#19a03c"
       id="path246" /><path
       d=""
       fill="#007f39"
       id="path247" /><path
       d=""
       fill="#19944f"
       id="path248" /><path
       d=""
       fill="#1ab84c"
       id="path249" /><path
       d=""
       fill="#005f00"
       id="path250" /><path
       d=""
       fill="#26aa62"
       id="path251" /><path
       d=""
       fill="#0f9f3a"
       id="path252" /><path
       d=""
       fill="#60ba63"
       id="path253" /><path
       d=""
       fill="#199549"
       id="path254" /><path
       d=""
       fill="#04a53c"
       id="path255" /><path
       d=""
       fill="#047b33"
       id="path256" /><path
       d=""
       fill="#139c42"
       id="path257" /><path
       d=""
       fill="#0b9f47"
       id="path258" /><path
       d=""
       fill="#119b41"
       id="path259" /><path
       d=""
       fill="#04a53c"
       id="path260" /><path
       d=""
       fill="#139c42"
       id="path261" /><path
       d=""
       fill="#0f9b51"
       id="path262" /><path
       d=""
       fill="#179944"
       id="path263" /><path
       d=""
       fill="#07a240"
       id="path264" /><path
       d=""
       fill="#159945"
       id="path265" /><path
       d=""
       fill="#12a335"
       id="path266" /><path
       d=""
       fill="#0e9b49"
       id="path267" /><path
       d=""
       fill="#169845"
       id="path268" /><path
       d=""
       fill="#0aa342"
       id="path269" /><path
       d=""
       fill="#169a44"
       id="path270" /><path
       d=""
       fill="#008728"
       id="path271" /><path
       d=""
       fill="#109e55"
       id="path272" /><path
       d=""
       fill="#1a7143"
       id="path273" /><path
       d=""
       fill="#149d48"
       id="path274" /><path
       d=""
       fill="#38a764"
       id="path275" /><path
       d=""
       fill="#05a544"
       id="path276" /><path
       d=""
       fill="#0a7e3a"
       id="path277" /><path
       d=""
       fill="#149c4a"
       id="path278" /><path
       d=""
       fill="#197640"
       id="path279" /><path
       d=""
       fill="#0c9f4e"
       id="path280" /><path
       d=""
       fill="#159c35"
       id="path281" /><path
       d=""
       fill="#177740"
       id="path282" /><path
       d=""
       fill="#149c4a"
       id="path283" /><path
       d=""
       fill="#2ca961"
       id="path284" /><path
       d=""
       fill="#07a645"
       id="path285" /><path
       d=""
       fill="#04823a"
       id="path286" /><path
       d=""
       fill="#159e49"
       id="path287" /><path
       d=""
       fill="#00851e"
       id="path288" /><path
       d=""
       fill="#137c42"
       id="path289" /><path
       d=""
       fill="#109e55"
       id="path290" /><path
       d=""
       fill="#007c30"
       id="path291" /><path
       d=""
       fill="#11783e"
       id="path292" /><path
       d=""
       fill="#179c4f"
       id="path293" /><path
       d=""
       fill="#08802c"
       id="path294" /><path
       d=""
       fill="#1c7945"
       id="path295" /><path
       d=""
       fill="#08a44b"
       id="path296" /><path
       d=""
       fill="#00802e"
       id="path297" /><path
       d=""
       fill="#157144"
       id="path298" /><path
       d=""
       fill="#159b4c"
       id="path299" /><path
       d=""
       fill="#1ea24f"
       id="path300" /><path
       d=""
       fill="#157240"
       id="path301" /><path
       d=""
       fill="#0d9f4c"
       id="path302" /><path
       d=""
       fill="#06a247"
       id="path303" /><path
       d=""
       fill="#217e48"
       id="path304" /><path
       d=""
       fill="#159c44"
       id="path305" /><path
       d=""
       fill="#139945"
       id="path306" /><path
       d=""
       fill="#157436"
       id="path307" /><path
       d=""
       fill="#07a63a"
       id="path308" /><path
       d=""
       fill="#03a145"
       id="path309" /><path
       d=""
       fill="#157432"
       id="path310" /><path
       d=""
       fill="#32ce4a"
       id="path311" /><path
       d=""
       fill="#119d35"
       id="path312" /><path
       d=""
       fill="#15752e"
       id="path313" /><path
       d=""
       fill="#027f05"
       id="path314" /><path
       d=""
       fill="#0c840e"
       id="path315" /><path
       d=""
       fill="#0bad3b"
       id="path316" /><path
       d=""
       fill="#058205"
       id="path317" /><path
       d=""
       fill="#137426"
       id="path318" /><path
       d=""
       fill="#002c00"
       id="path319" /><path
       d=""
       fill="#1aa53d"
       id="path320" /><path
       d=""
       fill="#088418"
       id="path321" /><path
       d=""
       fill="#167030"
       id="path322" /><path
       d=""
       fill="#09ac35"
       id="path323" /><path
       d=""
       fill="#009419"
       id="path324" /><path
       d=""
       fill="#197035"
       id="path325" /><path
       d=""
       fill="#13a93d"
       id="path326" /><path
       d=""
       fill="#127737"
       id="path327" /><path
       d=""
       fill="#0bb038"
       id="path328" /><path
       d=""
       fill="#14773a"
       id="path329" /><path
       d=""
       fill="#1ba73f"
       id="path330" /><path
       d=""
       fill="#187347"
       id="path331" /><path
       d=""
       fill="#08ab32"
       id="path332" /><path
       d=""
       fill="#167447"
       id="path333" /><path
       d=""
       fill="#12932a"
       id="path334" /><path
       d=""
       fill="#157338"
       id="path335" /><path
       d=""
       fill="#108731"
       id="path336" /><path
       d=""
       fill="#187437"
       id="path337" /><path
       d=""
       fill="#147e2d"
       id="path338" /><path
       d=""
       fill="#137637"
       id="path339" /><path
       d=""
       fill="#0b8b34"
       id="path340" /><path
       d=""
       fill="#137637"
       id="path341" /><path
       d=""
       fill="#138732"
       id="path342" /><path
       d=""
       fill="#127536"
       id="path343" /><path
       d=""
       fill="#05852f"
       id="path344" /><path
       d=""
       fill="#137637"
       id="path345" /><path
       d=""
       fill="#0f7a28"
       id="path346" /><path
       d=""
       fill="#187437"
       id="path347" /><path
       d=""
       fill="#05802b"
       id="path348" /><path
       d=""
       fill="#157539"
       id="path349" /><path
       d=""
       fill="#0b862f"
       id="path350" /><path
       d=""
       fill="#1e8a4f"
       id="path351" /><path
       d=""
       fill="#147438"
       id="path352" /><path
       d=""
       fill="#0b8533"
       id="path353" /><path
       d=""
       fill="#0f8242"
       id="path354" /><path
       d=""
       fill="#167439"
       id="path355" /><path
       d=""
       fill="#0b7f2c"
       id="path356" /><path
       d=""
       fill="#0d8342"
       id="path357" /><path
       d=""
       fill="#127739"
       id="path358" /><path
       d=""
       fill="#088331"
       id="path359" /><path
       d=""
       fill="#067937"
       id="path360" /><path
       d=""
       fill="#137639"
       id="path361" /><path
       d=""
       fill="#0f8c39"
       id="path362" /><path
       d=""
       fill="#21a34c"
       id="path363" /><path
       d=""
       fill="#127538"
       id="path364" /><path
       d=""
       fill="#06812e"
       id="path365" /><path
       d=""
       fill="#0e963b"
       id="path366" /><path
       d=""
       fill="#127739"
       id="path367" /><path
       d=""
       fill="#0b7f2c"
       id="path368" /><path
       d=""
       fill="#19af4e"
       id="path369" /><path
       d=""
       fill="#167537"
       id="path370" /><path
       d=""
       fill="#068330"
       id="path371" /><path
       d=""
       fill="#17a84c"
       id="path372" /><path
       d=""
       fill="#15753b"
       id="path373" /><path
       d=""
       fill="#068737"
       id="path374" /><path
       d=""
       fill="#1fab50"
       id="path375" /><path
       d=""
       fill="#087147"
       id="path376" /><path
       d=""
       fill="#078431"
       id="path377" /><path
       d=""
       fill="#1dac4e"
       id="path378" /><path
       d=""
       fill="#188452"
       id="path379" /><path
       d=""
       fill="#077d2a"
       id="path380" /><path
       d=""
       fill="#21aa4e"
       id="path381" /><path
       d=""
       fill="#048430"
       id="path382" /><path
       d=""
       fill="#038732"
       id="path383" /><path
       d=""
       fill="#25a850"
       id="path384" /><path
       d=""
       fill="#01802c"
       id="path385" /><path
       d=""
       fill="#147b3d"
       id="path386" /><path
       d=""
       fill="#05ac34"
       id="path387" /><path
       d=""
       fill="#008a31"
       id="path388" /><path
       d=""
       fill="#157c40"
       id="path389" /><path
       d=""
       fill="#06843c"
       id="path390" /><path
       d=""
       fill="#169941"
       id="path391" /><path
       d=""
       fill="#107e40"
       id="path392" /><path
       d=""
       fill="#0d813c"
       id="path393" /><path
       d=""
       fill="#07a04b"
       id="path394" /><path
       d=""
       fill="#127d42"
       id="path395" /><path
       d=""
       fill="#249652"
       id="path396" /><path
       d=""
       fill="#11954d"
       id="path397" /><path
       d=""
       fill="#1c9956"
       id="path398" /><path
       d=""
       fill="#067736"
       id="path399" /><path
       d=""
       fill="#049f46"
       id="path400" /><path
       d=""
       fill="#219f5e"
       id="path401" /><path
       d=""
       fill="#0c7e3a"
       id="path402" /><path
       d=""
       fill="#0d9d41"
       id="path403" /><path
       d=""
       fill="#1fa254"
       id="path404" /><path
       d=""
       fill="#0c7e3a"
       id="path405" /><path
       d=""
       fill="#00a340"
       id="path406" /><path
       d=""
       fill="#1c9e49"
       id="path407" /><path
       d=""
       fill="#067834"
       id="path408" /><path
       d=""
       fill="#079f40"
       id="path409" /><path
       d=""
       fill="#006709"
       id="path410" /><path
       d=""
       fill="#169f53"
       id="path411" /><path
       d=""
       fill="#01a542"
       id="path412" /><path
       d=""
       fill="#0a7212"
       id="path413" /><path
       d=""
       fill="#10a454"
       id="path414" /><path
       d=""
       fill="#10a24a"
       id="path415" /><path
       d=""
       fill="#0e9f42"
       id="path416" /><path
       d=""
       fill="#056f05"
       id="path417" /><path
       d=""
       fill="#10a454"
       id="path418" /><path
       d=""
       fill="#037b35"
       id="path419" /><path
       d=""
       fill="#03a442"
       id="path420" /><path
       d=""
       fill="#007d03"
       id="path421" /><path
       d=""
       fill="#119f54"
       id="path422" /><path
       d=""
       fill="#047f3a"
       id="path423" /><path
       d=""
       fill="#0e9f35"
       id="path424" /><path
       d=""
       fill="#1fa15c"
       id="path425" /><path
       d=""
       fill="#028323"
       id="path426" /><path
       d=""
       fill="#1fa158"
       id="path427" /><path
       d=""
       fill="#0fb73c"
       id="path428" /><path
       d=""
       fill="#49d27d"
       id="path429" /><path
       d=""
       fill="#1fa642"
       id="path430" /><path
       d=""
       fill="#008427"
       id="path431" /><path
       d=""
       fill="#03790d"
       id="path432" /><path
       d=""
       fill="#097c05"
       id="path433" /><path
       d=""
       fill="#098112"
       id="path434" /><path
       d=""
       fill="#018003"
       id="path435" /><path
       d=""
       fill="#06b54a"
       id="path436" /><path
       d=""
       fill="#008321"
       id="path437" /><path
       d=""
       fill="#038734"
       id="path438" /><path
       d=""
       fill="#169445"
       id="path439" /><path
       d=""
       fill="#067f36"
       id="path440" /><path
       d=""
       fill="#159b4c"
       id="path441" /><path
       d=""
       fill="#00752f"
       id="path442" /><path
       d=""
       fill="#1f9e4a"
       id="path443" /><path
       d=""
       fill="#018236"
       id="path444" /><path
       d=""
       fill="#048332"
       id="path445" /><path
       d=""
       fill="#098b3b"
       id="path446" /><path
       d=""
       fill="#0b7c2d"
       id="path447" /><path
       d=""
       fill="#0ba24b"
       id="path448" /><path
       d=""
       fill="#0d7b2f"
       id="path449" /><path
       d=""
       fill="#159d4b"
       id="path450" /><path
       d=""
       fill="#199b42"
       id="path451" /><path
       d=""
       fill="#0aa34d"
       id="path452" /><path
       d=""
       fill="#159e3e"
       id="path453" /><path
       d=""
       fill="#0d9f4e"
       id="path454" /><path
       d=""
       fill="#18a543"
       id="path455" /><path
       d=""
       fill="#16ac59"
       id="path456" /><path
       d=""
       fill="#18a543"
       id="path457" /><path
       d=""
       fill="#1ba854"
       id="path458" /><path
       d=""
       fill="#18a040"
       id="path459" /><path
       d=""
       fill="#1ee474"
       id="path460" /><path
       d=""
       fill="#1b9e42"
       id="path461" /><path
       d=""
       fill="#008920"
       id="path462" /><path
       d=""
       fill="#12812e"
       id="path463" /><path
       d=""
       fill="#188233"
       id="path464" /><path
       d=""
       fill="#18864c"
       id="path465" /><path
       d=""
       fill="#18854e"
       id="path466" /><path
       d=""
       fill="#1b9a56"
       id="path467" /><path
       d=""
       fill="#189c56"
       id="path468" /><path
       d=""
       fill="#179256"
       id="path469" /><path
       d=""
       fill="#27a148"
       id="path470" /><path
       d=""
       fill="#199557"
       id="path471" /><path
       d=""
       fill="#0f8a38"
       id="path472" /><path
       d=""
       fill="#005c0d"
       id="path473" /><path
       d=""
       fill="#007f29"
       id="path474" /><path
       d=""
       fill="#29954c"
       id="path475" /><path
       d=""
       fill="#187725"
       id="path476" /><path
       d=""
       fill="#14ad55"
       id="path477" /><path
       d=""
       fill="#056e0d"
       id="path478" /><path
       d=""
       fill="#037012"
       id="path479" /><path
       d=""
       fill="#007d14"
       id="path480" /><path
       d=""
       fill="#60bf6f"
       id="path481" /><path
       d=""
       fill="#001a00"
       id="path482" /><path
       d=""
       fill="#003000"
       id="path483" /><path
       d=""
       fill="#008707"
       id="path484" /><path
       d=""
       fill="#119b41"
       id="path485" /><path
       d=""
       fill="#2be879"
       id="path486" /><path
       d=""
       fill="#38ea79"
       id="path487" /><path
       d=""
       fill="#1df077"
       id="path488" /><path
       d=""
       fill="#3bd972"
       id="path489" /><path
       d=""
       fill="#07ac42"
       id="path490" /><path
       d=""
       fill="#41da72"
       id="path491" /><path
       d=""
       fill="#29e077"
       id="path492" /><path
       d=""
       fill="#099f4f"
       id="path493" /><path
       d=""
       fill="#009000"
       id="path494" /><path
       d=""
       fill="#4fc357"
       id="path495" /><path
       d=""
       fill="#2eed81"
       id="path496" /><path
       d=""
       fill="#227119"
       id="path497" /><path
       d=""
       fill="#0f7120"
       id="path498" /><path
       d=""
       fill="#49e87e"
       id="path499" /><path
       d=""
       fill="#007e01"
       id="path500" /><path
       d=""
       fill="#2dd62e"
       id="path501" /><path
       d=""
       fill="#0e721e"
       id="path502" /><path
       d=""
       fill="#26f27b"
       id="path503" /><path
       d=""
       fill="#229f4b"
       id="path504" /><path
       d=""
       fill="#098617"
       id="path505" /><path
       d=""
       fill="#33e577"
       id="path506" /><path
       d=""
       fill="#018234"
       id="path507" /><path
       d=""
       fill="#048113"
       id="path508" /><path
       d=""
       fill="#23ef78"
       id="path509" /><path
       d=""
       fill="#0f731f"
       id="path510" /><path
       d=""
       fill="#3fdd73"
       id="path511" /><path
       d=""
       fill="#0f6f18"
       id="path512" /><path
       d=""
       fill="#0e721c"
       id="path513" /><path
       d=""
       fill="#1ee474"
       id="path514" /><path
       d=""
       fill="#20922a"
       id="path515" /><path
       d=""
       fill="#001d00"
       id="path516" /><path
       d=""
       fill="#0c770a"
       id="path517" /><path
       d=""
       fill="#30e077"
       id="path518" /><path
       d=""
       fill="#0b7806"
       id="path519" /><path
       d=""
       fill="#1ce775"
       id="path520" /><path
       d=""
       fill="#097d1d"
       id="path521" /><path
       d=""
       fill="#40e078"
       id="path522" /><path
       d=""
       fill="#14b94d"
       id="path523" /><path
       d=""
       fill="#067d23"
       id="path524" /><path
       d=""
       fill="#129539"
       id="path525" /><path
       d=""
       fill="#37cd5f"
       id="path526" /><path
       d=""
       fill="#008334"
       id="path527" /><path
       d=""
       fill="#12a136"
       id="path528" /><path
       d=""
       fill="#24a64f"
       id="path529" /><path
       d=""
       fill="#16974b"
       id="path530" /><path
       d=""
       fill="#006e19"
       id="path531" /><path
       d=""
       fill="#10994d"
       id="path532" /><path
       d=""
       fill="#188e40"
       id="path533" /><path
       d=""
       fill="#34e096"
       id="path534" /><path
       d=""
       fill="#028a3a"
       id="path535" /><path
       d=""
       fill="#30e19e"
       id="path536" /><path
       d=""
       fill="#00791e"
       id="path537" /></g></svg>
